<svg width="21" height="21" viewBox="0 0 21 21" fill="none" xmlns="http://www.w3.org/2000/svg">
<path d="M5.80637 7.88611H2.53296V18.3623H5.80637V7.88611Z" fill="#7572D5"/>
<path d="M4.10079 2.93994C2.89376 2.93994 2.10001 3.72057 2.10001 4.75704C2.10001 5.77383 2.86752 6.57415 4.05487 6.57415H4.08111C5.31437 6.57415 6.08189 5.76727 6.07533 4.75704C6.04909 3.72057 5.30781 2.93994 4.10079 2.93994Z" fill="#7572D5"/>
<path d="M14.7476 7.78772C12.8714 7.78772 11.6972 8.81107 11.4807 9.53266V7.88612H7.8006C7.84652 8.75859 7.8006 18.3623 7.8006 18.3623H11.4807V12.7011C11.4807 12.3797 11.4676 12.0648 11.5594 11.8418C11.8087 11.212 12.3532 10.556 13.3306 10.556C14.6098 10.556 15.1871 11.5269 15.1871 12.9438V18.3623H18.9V12.5371C18.9 9.29651 17.0764 7.78772 14.7476 7.78772Z" fill="#7572D5"/>
</svg>
