<svg width="21" height="21" viewBox="0 0 21 21" fill="none" xmlns="http://www.w3.org/2000/svg">
<path d="M18.1695 13.9938C17.8037 13.5389 17.3881 13.1311 16.9861 12.7368C16.8431 12.5965 16.6954 12.4515 16.5529 12.3073C16.1439 11.893 16.129 11.7373 16.4528 11.2666C16.6769 10.9422 16.9144 10.6173 17.1441 10.3031C17.3525 10.018 17.568 9.72327 17.7745 9.42753L17.8169 9.36672C18.2117 8.80078 18.6199 8.21558 18.8371 7.50963C18.8935 7.32338 18.9528 7.0493 18.8173 6.82012C18.682 6.59113 18.4194 6.52127 18.2337 6.48864C18.1418 6.47249 18.0505 6.47028 17.9659 6.47028L15.3809 6.46837L15.3595 6.46818C14.9687 6.46818 14.7053 6.65903 14.5543 7.0517C14.4102 7.42688 14.2519 7.82641 14.0713 8.20629C13.7119 8.96274 13.2554 9.834 12.5948 10.5607L12.5669 10.5916C12.4888 10.6784 12.4005 10.7768 12.3359 10.7768C12.326 10.7768 12.3152 10.7748 12.303 10.7709C12.1662 10.7156 12.0743 10.3724 12.0785 10.2127C12.0785 10.2105 12.0786 10.2083 12.0786 10.2061L12.0768 7.11025C12.0768 7.09952 12.076 7.08888 12.0747 7.07824C12.0089 6.57498 11.8633 6.2617 11.3129 6.15001C11.2983 6.14699 11.2833 6.14551 11.2685 6.14551H8.58055C8.14263 6.14551 7.90134 6.32994 7.67452 6.60598C7.61329 6.67977 7.48585 6.83339 7.54901 7.01974C7.61311 7.20886 7.82115 7.24931 7.8889 7.26243C8.22517 7.32875 8.41472 7.54188 8.46841 7.91429C8.56214 8.56096 8.57366 9.2512 8.50467 10.0865C8.48543 10.3187 8.44737 10.498 8.38467 10.6512C8.3701 10.6869 8.31845 10.8036 8.26578 10.8036C8.24904 10.8036 8.20062 10.7968 8.11243 10.7339C7.90393 10.5859 7.75137 10.3746 7.57352 10.1137C6.96848 9.22772 6.46069 8.25166 6.02093 7.12913C5.85783 6.7159 5.55323 6.48456 5.16285 6.47776C4.7339 6.471 4.345 6.46774 3.97409 6.46774C3.56881 6.46774 3.19309 6.47163 2.8262 6.47953C2.51212 6.48528 2.29488 6.58284 2.18056 6.76971C2.06607 6.95673 2.07351 7.2024 2.20271 7.49976C3.23698 9.8823 4.17473 11.6146 5.2434 13.1169C5.99221 14.1681 6.74328 14.8957 7.60682 15.4065C8.5166 15.9458 9.53616 16.208 10.7237 16.208C10.8583 16.208 10.9975 16.2046 11.1378 16.1978C11.8278 16.163 12.0838 15.9042 12.1162 15.208C12.1316 14.8522 12.1692 14.4791 12.338 14.1609C12.4445 13.9604 12.5438 13.9604 12.5765 13.9604C12.6394 13.9604 12.7173 13.9904 12.8011 14.0466C12.9513 14.1482 13.0801 14.2843 13.1856 14.4031C13.285 14.5161 13.3833 14.6302 13.4816 14.7443C13.6939 14.9906 13.9133 15.2453 14.1426 15.4869C14.6444 16.0159 15.1973 16.2486 15.8322 16.1981H18.2023C18.2073 16.1981 18.2124 16.1979 18.2174 16.1976C18.4536 16.1814 18.6581 16.0457 18.7786 15.8252C18.9278 15.552 18.9248 15.2035 18.7705 14.8927C18.5955 14.5413 18.3685 14.241 18.1695 13.9938Z" fill="#7572D5"/>
</svg>
